<svg width="360" height="356" viewBox="0 0 360 356" fill="none" xmlns="http://www.w3.org/2000/svg">
<path d="M325.712 248.173L313.878 260.652C313.878 260.652 313.878 260.663 313.867 260.686L311.638 263.017C311.627 263.028 311.615 263.028 311.615 263.028L311.48 263.175C311.469 263.164 311.446 263.152 311.435 263.141C285.899 247.339 261.264 223.8 255.061 217.73C251.874 214.858 248.879 211.422 246.56 207.323C241.111 197.671 233.747 179.639 228.613 166.439L227.937 169.311L218.694 208.494C222.646 214.565 228.061 223.868 232.7 235.333C235.053 241.156 237.204 247.553 238.859 254.345L185.727 285.61L185.738 286.399L185.018 286.016L184.308 286.421L184.297 285.633L129.994 256.428C131.751 247.824 134.306 239.85 137.076 232.81C137.121 232.698 137.166 232.574 137.211 232.461C140.994 222.967 145.183 215.184 148.38 209.823L137.47 170.403L135.995 165.099L135.207 162.238C130.017 175.134 120.446 198.121 113.77 209.418C111.371 213.472 108.332 216.851 105.066 219.656C98.7613 225.602 73.6308 248.702 47.8024 264.031L45.438 261.452L33.8523 248.758L92.7376 193.379L112.633 136.469C124.094 111.871 132.685 111.533 132.685 111.533V111.544C134.273 110.204 136.074 109.089 138.101 108.289C138.754 108.03 139.418 107.771 140.105 107.49L140.116 107.478C144 105.879 148.347 103.84 152.704 101.284C157.838 98.2541 162.972 94.4811 167.374 89.8183C168.016 85.4371 168.253 79.2088 168.343 75.1655C168.388 72.7552 168.388 71.1109 168.388 71.1109L180.908 72.3948L193.372 70.6266C193.372 70.6266 193.484 73.8815 193.777 77.9586C194.059 81.6303 194.464 85.9777 195.083 89.289C197.121 91.2938 199.305 93.1183 201.568 94.7514C209.416 100.529 218.164 104.235 225.044 106.622C226.823 107.242 228.444 108.109 229.919 109.145C231.709 109.596 239.478 112.704 249.082 134.408L267.896 191.679L325.712 248.173Z" fill="#5E4453"/>
<path d="M201.58 94.7627C199.564 97.0265 193.394 101.881 175.92 105.902C152.287 111.33 140.116 107.501 140.116 107.501L140.127 107.49C144.012 105.89 148.358 103.852 152.715 101.295C157.849 98.2654 162.983 94.4924 167.386 89.8296C168.027 85.4484 168.264 79.2201 168.354 75.1767L193.788 77.9699C194.07 81.6416 194.475 85.989 195.094 89.3002C197.132 91.2937 199.317 93.1296 201.58 94.7627Z" fill="#3F2935"/>
<path d="M214.888 179.29C206.59 182.961 192.1 175.843 179.793 179.819C167.487 183.795 161.385 195.193 159.009 209.767C156.622 224.33 162.713 245.515 162.713 245.515C162.713 245.515 151.713 248.567 137.211 232.484C140.994 222.989 145.183 215.207 148.38 209.846L135.995 165.121L135.207 162.26C135.207 162.26 132.257 146.966 139.666 135.309C139.666 135.309 137.358 147.777 141.692 159.163C146.016 170.55 156.228 170.55 166.879 170.291C177.53 170.032 177.384 166.371 189.42 168.973C209.506 173.298 217.354 171.361 222.038 164.761C225.134 160.391 223.164 175.618 214.888 179.29Z" fill="#3F2935"/>
<path d="M157.737 57.5843C157.737 57.5843 154.888 51.7615 151.127 51.998C147.378 52.2232 146.117 60.2423 151.409 66.4819C156.701 72.7215 161.497 70.0522 161.497 70.0522L157.737 57.5843Z" fill="#EA8D78"/>
<path d="M204.811 56.6833C204.811 56.6833 207.434 50.7591 211.195 50.8379C214.956 50.928 216.521 58.8795 211.476 65.3218C206.432 71.7641 201.535 69.2751 201.535 69.2751L204.811 56.6833Z" fill="#EA8D78"/>
<path d="M206.5 44.6659C206.95 67.9235 193.09 88.7033 182.056 88.9173C168.669 89.1763 155.721 67.3379 155.305 45.6458C155.001 29.6076 164.616 16.4076 180.649 16.1035C196.704 15.7994 206.196 28.6277 206.5 44.6659Z" fill="#FFA488"/>
<path d="M161.058 46.8171C161.058 46.8171 164.819 45.7471 168.894 45.443C174.006 45.0714 175.886 45.6007 175.886 45.6007C175.886 45.6007 174.907 42.74 170.606 42.8188C166.305 42.8976 161.058 46.8171 161.058 46.8171Z" fill="#2F2A00"/>
<path d="M175.616 53.0905C175.616 53.0905 172.599 49.0359 168.725 48.9908C164.852 48.9458 161.407 53.3608 161.407 53.3608C161.407 53.3608 162.465 54.5208 167.971 54.7574C173.623 55.0164 175.616 53.0905 175.616 53.0905Z" fill="#EA8D78"/>
<path d="M168.624 54.442C164.976 54.4758 162.004 53.5635 161.497 53.3945L161.441 53.372C161.441 53.372 161.43 53.372 161.43 53.3833L161.407 53.372L161.418 53.3833C160.777 53.8 159.459 53.9126 159.459 53.9126C160.822 54.3406 161.891 54.1942 162.375 54.0928C163.434 54.8136 165.291 55.7485 168.635 55.7147C173.432 55.6584 175.605 53.113 175.605 53.113C175.605 53.113 172.632 54.4082 168.624 54.442Z" fill="#2F2A00"/>
<path d="M200.566 46.0512C200.566 46.0512 196.761 45.1277 192.685 44.9813C187.573 44.8011 185.704 45.4092 185.704 45.4092C185.704 45.4092 186.571 42.5147 190.872 42.4246C195.162 42.3458 200.566 46.0512 200.566 46.0512Z" fill="#2F2A00"/>
<path d="M186.245 52.8877C186.245 52.8877 189.104 48.7205 192.978 48.529C196.851 48.3376 200.454 52.6174 200.454 52.6174C200.454 52.6174 199.44 53.8225 193.946 54.2731C188.316 54.7348 186.245 52.8877 186.245 52.8877Z" fill="#EA8D78"/>
<path d="M202.424 53.0792C202.424 53.0792 201.107 53.0229 200.442 52.6287L200.454 52.6174C200.454 52.6174 200.442 52.6174 200.431 52.6287C200.431 52.6287 200.42 52.6287 200.42 52.6174L200.364 52.6512C199.868 52.8314 196.93 53.8676 193.282 53.969C189.273 54.0816 186.245 52.8877 186.245 52.8877C186.245 52.8877 188.508 55.3543 193.315 55.2191C196.659 55.129 198.483 54.1154 199.508 53.3608C199.992 53.4509 201.073 53.5522 202.424 53.0792Z" fill="#2F2A00"/>
<path d="M177.609 67.0338C177.609 67.0338 179.669 68.2839 181.358 68.374C183.047 68.4641 185.051 66.8986 185.051 66.8986C185.051 66.8986 183.486 66.7297 181.606 66.6959C179.714 66.6396 177.609 67.0338 177.609 67.0338Z" fill="#EA8D78"/>
<path d="M182.248 74.2419C186.414 73.9941 189.048 72.6764 189.048 72.6764C189.048 72.6764 184.601 72.2034 183.453 72.4174C182.743 72.5525 182.248 73.2283 181.978 73.7238C181.685 73.2395 181.167 72.5863 180.458 72.4737C179.309 72.2935 174.873 72.9467 174.873 72.9467C174.873 72.9467 177.564 74.1518 181.73 74.2419L181.719 74.2645C181.809 74.2645 181.887 74.2532 181.978 74.2532C182.068 74.2532 182.146 74.2532 182.237 74.2532C182.259 74.2644 182.248 74.2419 182.248 74.2419Z" fill="#743F3D"/>
<path d="M176.156 74.7262C176.156 74.7262 177.035 75.9764 180.277 76.7648C183.52 77.5532 185.873 76.2129 187.821 74.974C187.821 74.974 186.065 78.3303 182.405 78.7808C178.746 79.2313 176.292 75.2218 176.156 74.7262Z" fill="#EA8D78"/>
<path d="M190.951 29.8892C190.951 29.8892 185.378 26.9383 177.868 27.3213C170.358 27.7042 164.526 33.5721 162.353 37.7281C160.18 41.884 157.973 43.0666 157.973 43.0666C157.973 43.0666 158.66 53.1355 156.735 57.4266C156.735 57.4266 154.134 53.0792 151.139 51.998C151.139 51.998 148.572 42.8076 150.148 33.0202C151.724 23.2441 162.094 12.7022 176.033 11.2605C189.983 9.81891 197.042 16.6104 197.042 16.6104C197.042 16.6104 206.309 21.8363 209.056 30.7113C211.814 39.5864 209.45 51.1082 209.45 51.1082C209.45 51.1082 207.063 52.3133 205.532 56.4806C205.532 56.4806 201.073 49.7454 202.221 42.1994C202.21 42.2106 200.386 30.2158 190.951 29.8892Z" fill="#743F3D"/>
<path d="M199.249 21.6223C196.457 22.5121 178.408 12.736 178.408 12.736C178.408 12.736 178.318 11.1592 178.825 9.10936C179.534 6.29367 181.369 2.57696 186.177 0.842494C186.999 0.549662 187.821 0.335667 188.609 0.189251C195.837 -1.03839 201.839 3.91723 203.561 8.96295C205.464 14.5831 202.052 20.7438 199.249 21.6223Z" fill="#743F3D"/>
<path d="M175.875 45.6007C175.875 45.6007 177.62 48.8782 178.611 53.8563C179.591 58.8345 178.78 62.4048 178.78 62.4048C178.78 62.4048 177.812 48.3263 170.651 45.3417C170.651 45.3417 174.58 45.2516 175.875 45.6007Z" fill="#EA8D78"/>
<path d="M190.951 29.8891C190.951 29.8891 182.045 26.9045 174.456 30.2045C166.868 33.5045 167.048 38.3137 161.79 38.7304L161.114 37.469C161.114 37.469 162.522 37.7393 165.73 35.2052C168.939 32.6711 175.695 23.5707 190.951 29.8891Z" fill="#743F3D"/>
<path d="M154.719 295.893C154.719 295.893 147.435 296.817 144.89 297.312C144.89 297.312 134.712 295.848 130.433 296.04C126.155 296.22 123.824 301.311 121.403 306.841C118.994 312.371 109.626 318.25 106.327 321.696C103.017 325.131 102.927 330.177 103.006 331.247C103.074 332.317 100.923 335.358 102.06 337.847C103.197 340.347 104.425 339.514 105.472 339.221C106.53 338.939 107.262 337.171 107.262 337.171C107.262 337.171 109.953 337.306 111.101 336.811C112.25 336.304 111.259 336.045 113.826 335.876C116.382 335.707 117.755 335.392 119.32 334.75C120.886 334.108 131.604 322.98 137.414 320.018C143.212 317.056 152.163 317.743 152.163 317.743L154.719 295.893Z" fill="#FFA488"/>
<path d="M319.238 303.462C301.933 313.148 273.267 316.955 240.097 318.971C236.055 319.218 231.957 319.444 227.791 319.635L228.365 334.029C228.365 334.029 225.843 334.006 221.385 333.939C207.705 333.781 175.796 333.364 142.537 332.7C88.7407 331.641 45.9559 318.284 33.5934 306.379C27.6373 300.635 24.1019 291.467 25.363 282.907C26.365 276.127 30.3846 269.741 38.5812 265.698C40.529 264.729 43.9406 263.513 48.5568 262.195C63.0135 258.05 89.1798 253.05 118.048 252.768C118.51 252.734 118.938 252.712 119.354 252.667C123.16 246.956 137.223 232.461 137.223 232.461C137.223 232.461 147.108 240.784 160.63 245.729C167.78 248.342 175.943 250.02 184.207 249.018C208.088 246.134 232.081 232.822 232.081 232.822C236.934 237.653 241.584 249.006 241.584 249.006C265.487 249.232 305.074 256.485 313.597 260.753C313.653 260.787 313.71 260.832 313.755 260.855C319.542 262.409 324.361 265.777 327.66 270.056C335.293 279.968 334.787 294.778 319.238 303.462Z" fill="#E9835B"/>
<path d="M33.8523 248.77C33.8523 248.77 27.8399 247.846 25.4192 247.902C23.0097 247.948 18.1458 249.491 15.3873 249.952C12.64 250.414 11.2552 250.515 11.334 250.932C11.4128 251.349 12.3248 252.363 15.3647 252.791C18.4047 253.219 21.0056 252.408 22.6269 252.374C24.2482 252.34 24.6085 253.297 24.6085 253.297C24.6085 253.297 22.9647 257.679 17.6729 258.602C12.3811 259.537 10.2981 258.749 9.93784 257.994C9.57755 257.239 11.8294 252.092 11.2326 250.178C10.6472 248.263 9.74643 248.409 8.63178 251.473C7.51712 254.525 5.56929 257.465 5.61433 259.458C5.64811 261.463 9.05963 263.186 9.05963 263.186C9.05963 263.186 2.49554 262.42 0.525195 264.245C-1.4339 266.081 2.49554 266.137 5.60307 266.418C8.71059 266.7 11.6267 267.612 13.4845 267.376C13.4845 267.376 5.14145 267.263 3.50887 268.603C1.87629 269.944 5.209 270.845 8.37282 270.788C11.5479 270.732 15.8264 271.408 16.5244 271.385C16.5244 271.385 9.09341 272.286 9.34111 274.145C9.58881 276.003 10.9399 274.73 15.0157 275.136C19.0915 275.541 22.4693 275.474 26.3086 274.302C30.148 273.12 45.4041 261.474 45.4041 261.474L33.8523 248.77Z" fill="#FFA488"/>
<path d="M290.91 266.982C259.114 271.498 170.122 294.283 170.122 294.283C170.122 294.283 123.239 272.816 91.803 267.781C61.955 263.006 44.5371 265.382 48.5341 262.195C62.9908 258.05 89.1571 253.05 118.026 252.768C118.487 252.734 118.915 252.712 119.332 252.667C123.137 246.956 137.2 232.461 137.2 232.461C137.2 232.461 147.085 240.784 160.608 245.729C161.7 250.966 180.446 276.78 193.957 272.534C207.468 268.311 225.201 262.465 233.679 265.382C242.158 268.299 259.373 266.7 271.24 264.031C283.107 261.384 290.91 266.982 290.91 266.982Z" fill="#CC6A4C"/>
<path d="M313.878 260.652C313.878 260.652 313.878 260.663 313.867 260.686C313.754 260.922 313.191 262.071 311.638 263.017C311.626 263.028 311.615 263.028 311.615 263.028C311.559 263.062 311.491 263.107 311.435 263.141C285.899 247.339 261.264 223.8 255.061 217.73C251.874 214.858 248.879 211.422 246.56 207.323C241.11 197.671 233.747 179.639 228.613 166.439L231.563 141.841C231.563 141.841 242.597 189.426 254.261 204.766C265.914 220.095 313.878 260.652 313.878 260.652Z" fill="#3F2935"/>
<path d="M137.47 170.415L135.995 165.11L135.207 162.249C130.017 175.145 120.446 198.132 113.77 209.429C111.372 213.484 108.332 216.862 105.066 219.667C98.7613 225.614 73.6309 248.713 47.8024 264.042L45.438 261.463C45.438 261.463 96.3293 217.989 111.27 200.892C126.2 183.795 135.387 146.504 135.387 146.504L137.47 170.415Z" fill="#3F2935"/>
<path d="M319.238 303.462C301.933 313.148 273.267 316.955 240.097 318.971C226.226 316.695 216.329 311.289 216.329 311.289V309.645L170.167 294.305C170.561 294.406 178.149 292.267 178.149 292.267C199.17 296.952 250.974 311.075 277.939 304.892C312.64 296.941 313.957 282.344 320.307 275.068C322.796 272.23 325.397 270.777 327.648 270.068C335.293 279.968 334.787 294.778 319.238 303.462Z" fill="#CC6A4C"/>
<path d="M216.329 311.278C216.329 311.278 223.591 312.348 226.125 312.889C226.125 312.889 236.325 311.627 240.604 311.898C244.871 312.168 247.112 317.292 249.42 322.868C251.728 328.443 260.972 334.502 264.203 338.016C267.446 341.519 267.434 346.564 267.333 347.634C267.243 348.704 269.337 351.779 268.155 354.257C266.973 356.735 265.757 355.879 264.71 355.563C263.663 355.259 262.953 353.48 262.953 353.48C262.953 353.48 260.262 353.57 259.125 353.04C257.988 352.511 258.979 352.275 256.423 352.049C253.867 351.824 252.493 351.497 250.951 350.822C249.408 350.146 238.892 338.816 233.15 335.741C227.408 332.666 218.446 333.173 218.446 333.173L216.329 311.278Z" fill="#FFA488"/>
<path d="M325.712 248.184C325.712 248.184 331.747 247.384 334.156 247.475C336.565 247.565 341.407 249.198 344.143 249.716C346.879 250.234 348.252 250.358 348.174 250.763C348.084 251.169 347.149 252.171 344.109 252.543C341.058 252.914 338.468 252.047 336.858 251.991C335.237 251.923 334.854 252.881 334.854 252.881C334.854 252.881 336.408 257.284 341.688 258.321C346.958 259.345 349.063 258.602 349.435 257.859C349.806 257.115 347.656 251.923 348.286 250.02C348.917 248.117 349.806 248.285 350.853 251.36C351.912 254.435 353.792 257.408 353.724 259.402C353.646 261.395 350.2 263.062 350.2 263.062C350.2 263.062 356.776 262.42 358.712 264.29C360.638 266.159 356.708 266.148 353.601 266.373C350.482 266.599 347.554 267.455 345.708 267.173C345.708 267.173 354.051 267.218 355.661 268.592C357.26 269.966 353.916 270.8 350.752 270.687C347.588 270.563 343.287 271.16 342.589 271.138C342.589 271.138 349.998 272.185 349.727 274.032C349.446 275.879 348.117 274.595 344.042 274.922C339.954 275.249 336.588 275.125 332.771 273.874C328.954 272.624 313.923 260.686 313.923 260.686L325.712 248.184Z" fill="#FFA488"/>
<path d="M221.362 333.939C207.682 333.781 175.774 333.364 142.514 332.7C88.718 331.641 45.9332 318.284 33.5707 306.379C27.6146 300.635 24.0792 291.467 25.3403 282.907C29.889 286.444 38.6823 292.604 55.436 300.984C82.9758 314.77 133.822 322.192 174.096 326.066C214.359 329.952 217.973 328.24 217.973 328.24L221.362 333.939Z" fill="#CC6A4C"/>
<path d="M193.135 15.3602C187.697 12.7022 179.095 11.0803 179.095 11.0803C178.949 10.3933 178.859 9.74006 178.814 9.12061C179.523 6.30492 181.358 2.58821 186.166 0.853743C186.988 0.560911 187.81 0.346916 188.598 0.2005C187.686 1.13531 186.751 2.86978 187.573 5.75305C188.969 10.6636 198.562 18.0069 193.135 15.3602Z" fill="#603030"/>
<path d="M188.069 25.4742C188.069 25.4742 178.048 21.6786 168.467 25.4742C158.885 29.2697 157.545 39.5076 155.305 40.5212C155.305 40.5212 157.241 26.7806 167.543 23.796C177.834 20.7888 188.069 25.4742 188.069 25.4742Z" fill="#603030"/>
<path d="M195.657 19.1557L191.863 27.7042C191.863 27.7042 197.042 25.339 195.657 19.1557Z" fill="#603030"/>
</svg>
